#!OML:ASF F:\VICON\USERDATA\INSTALL\rory3\rory3.ASF
:FULLY-SPECIFIED
:DEGREES
1
root 0.0998891000000004 16.9917 -33.213300000000025 2.059509999999996 -2.5245799999999923 -5.0346999999999955
lfemur -22.15960000000001 6.750750000000005 -9.555060000000031
ltibia 104.06600000000009
lfoot 7.763969999999996 -12.769399999999997
ltoes -2.5063300000000055
rfemur -22.525500000000005 6.437130000000005 34.59199999999999
rtibia 53.56260000000001
rfoot -22.914400000000043 -11.465199999999989
rtoes -3.321099999999997
lowerback -8.881784189112644e-10 0.06768929999999979 3.987989999999999
upperback 0.5198199999999987 1.3889399999999992 2.960419999999997
thorax -11.2003 0.5285120000000001 0.5895180000000002
lowerneck -20.4051 -2.907060000000003 -1.6514499999999994
upperneck 13.647599999999999 -3.674809999999997 1.1377600000000023
head 7.588349999999999 -1.7257299999999975 0.19273199999999963
lclavicle 1.0138000000000029e-14 1.3119799999999997e-14
lhumerus -49.26619999999999 -9.871649999999995 99.4789
lradius 102.31199999999997
lwrist 34.87299999999998
lhand -19.125699999999995 7.1260900000000005
lfingers 7.12502
lthumb 7.183779999999999 36.9842
rclavicle 1.0138000000000029e-14 1.3119799999999997e-14
rhumerus -45.10280000000001 21.980400000000017 -104.908
rradius 109.392
rwrist -19.901200000000006
rhand -25.335199999999997 -8.881784189112644e-10
rfingers 7.12502
rthumb 1.1878200000000023 12.314299999999983
2
root 0.0888177 16.9684 -31.428299999999993 4.309690000000001 -0.2527200000000034 -4.858380000000004
lfemur -34.89869999999998 7.308179999999983 -10.467199999999972
ltibia 103.96900000000005
lfoot 3.5164299999999975 -8.745659999999996
ltoes -4.04578999999999
rfemur -17.3171 6.205099999999994 35.116699999999994
rtibia 51.8155
rfoot -24.748499999999986 -14.66589999999999
rtoes -10.968999999999987
lowerback -8.881784189112644e-10 -0.10196299999999947 3.5272699999999952
upperback -1.1902700000000004 1.0960999999999994 3.5994600000000037
thorax -11.953999999999994 0.43063099999999976 1.6713100000000016
lowerneck -15.625300000000001 -3.025220000000001 -3.151250000000002
upperneck 12.251400000000004 -3.6631399999999985 1.7779899999999986
head 6.374949999999996 -1.7711600000000007 0.71449
lclavicle -9.144090000000014e-15 -2.862499999999996e-14
lhumerus -56.71209999999999 -8.092790000000003 100.428
lradius 104.072
lwrist 38.3612
lhand -18.6242 8.925309999999996
lfingers 7.12502
lthumb 7.6678700000000015 38.7663
rclavicle -9.144090000000014e-15 -2.862499999999996e-14
rhumerus -44.1381 26.030799999999985 -105.266
rradius 113.847
rwrist -22.390800000000006
rhand -24.195099999999996 -8.881784189112644e-10
rfingers 7.12502
rthumb 2.2889699999999964 15.824599999999998
3
root 0.12923099999999982 17.1178 -29.578400000000016 5.071920000000002 1.1768700000000005 -5.08871
lfemur -42.280499999999996 6.384359999999987 -12.302000000000005
ltibia 96.91610000000006
lfoot 1.7213799999999981 -6.799779999999996
ltoes 3.8252599999999735
rfemur -9.483690000000012 6.34372 35.919899999999984
rtibia 48.06330000000001
rfoot -21.764400000000055 -13.546400000000009
rtoes -16.00589999999998
lowerback -8.881784189112644e-10 0.6567540000000005 5.604320000000001
upperback -0.4320529999999996 2.3078399999999997 2.6673400000000025
thorax -10.2355 0.8812259999999987 -0.8636650000000017
lowerneck -20.4125 -4.2561800000000005 -2.23463
upperneck 13.670300000000001 -5.557740000000001 2.3245400000000007
head 7.67631 -2.5327600000000006 0.442022
lclavicle 1.729429999999998e-14 2.2263900000000022e-14
lhumerus -59.42680000000001 -10.676100000000003 99.5109
lradius 106.17000000000002
lwrist 42.7973
lhand -17.231 8.568610000000001
lfingers 7.12502
lthumb 9.012480000000002 38.3561
rclavicle 1.729429999999998e-14 2.2263900000000022e-14
rhumerus -38.72080000000001 25.877999999999986 -104.077
rradius 118.25400000000002
rwrist -22.239999999999995
rhand -20.828000000000003 -8.881784189112644e-10
rfingers 7.12502
rthumb 5.540390000000008 38.91750000000003
4
root 0.14494799999999936 17.544 -27.646299999999982 4.22643 5.421350000000001 -4.419090000000003
lfemur -43.97149999999995 0.887415 -14.580799999999995
ltibia 82.08779999999996
lfoot -5.4419900000000085 -6.030149999999993
ltoes -13.796000000000003
rfemur -0.7064489999999708 3.41317 35.707400000000014
rtibia 42.060099999999984
rfoot -11.447300000000038 -8.604309999999998
rtoes -20.1132
lowerback -8.881784189112644e-10 0.2477650000000001 5.981520000000007
upperback -0.6745059999999996 1.9974499999999975 2.5971599999999997
thorax -11.457899999999999 0.6741929999999995 -1.097849999999997
lowerneck -22.487099999999998 -4.91702 -1.7123300000000006
upperneck 14.4308 -6.45273 1.6033699999999975
head 8.2525 -2.97303 -0.04970559999999846
lclavicle -7.752599999999991e-15 -3.180550000000006e-15
lhumerus -62.47479999999999 -8.760630000000003 98.7901
lradius 106.651
lwrist 43.6322
lhand -15.771 8.845040000000004
lfingers 7.12502
lthumb 10.420999999999998 38.56679999999999
rclavicle -7.752599999999991e-15 -3.180550000000006e-15
rhumerus -37.50539999999998 26.189699999999974 -103.719
rradius 120.36799999999998
rwrist -18.329099999999997
rhand -26.886 -8.881784189112644e-10
rfingers 7.12502
rthumb -0.3100010000000002 -0.02503120000002923
